<svg xmlns="http://www.w3.org/2000/svg" width="14.538" height="20.999" viewBox="0 0 14.538 20.999">
  <g id="microphone-black-shape" transform="translate(-73.087)">
    <g id="Group_2241" data-name="Group 2241" transform="translate(73.087)">
      <path id="Path_2320" data-name="Path 2320" d="M150.217,14.538a4.049,4.049,0,0,0,4.038-4.038V4.038a3.888,3.888,0,0,0-1.186-2.852,4.021,4.021,0,0,0-5.7,0,3.888,3.888,0,0,0-1.186,2.852V10.5a4.05,4.05,0,0,0,4.038,4.038Z" transform="translate(-142.948)" fill="#095596"/>
      <path id="Path_2321" data-name="Path 2321" d="M87.385,182.964a.807.807,0,0,0-1.375.568v1.615a5.654,5.654,0,0,1-11.307,0v-1.615a.808.808,0,0,0-1.615,0v1.615a7.268,7.268,0,0,0,6.461,7.218v1.666H76.318a.808.808,0,0,0,0,1.616h8.076a.808.808,0,0,0,0-1.616h-3.23v-1.666a7.269,7.269,0,0,0,6.461-7.218v-1.615A.776.776,0,0,0,87.385,182.964Z" transform="translate(-73.087 -174.647)" fill="#095596"/>
    </g>
  </g>
</svg>
